<mxfile host="app.diagrams.net" agent="Mozilla/5.0 (Windows NT 10.0; Win64; x64) AppleWebKit/537.36 (KHTML, like Gecko) Chrome/133.0.0.0 Safari/537.36" version="26.1.0">
  <diagram id="C5RBs43oDa-KdzZeNtuy" name="Page-1">
    <mxGraphModel dx="1050" dy="1732" grid="1" gridSize="10" guides="1" tooltips="1" connect="1" arrows="1" fold="1" page="1" pageScale="1" pageWidth="827" pageHeight="1169" math="0" shadow="0">
      <root>
        <mxCell id="WIyWlLk6GJQsqaUBKTNV-0" />
        <mxCell id="WIyWlLk6GJQsqaUBKTNV-1" parent="WIyWlLk6GJQsqaUBKTNV-0" />
        <mxCell id="WIyWlLk6GJQsqaUBKTNV-2" value="" style="rounded=0;html=1;jettySize=auto;orthogonalLoop=1;fontSize=11;endArrow=block;endFill=0;endSize=8;strokeWidth=1;shadow=0;labelBackgroundColor=none;edgeStyle=orthogonalEdgeStyle;entryX=0.5;entryY=0;entryDx=0;entryDy=0;" parent="WIyWlLk6GJQsqaUBKTNV-1" source="WIyWlLk6GJQsqaUBKTNV-3" target="N4FY37cbQbUWtQMGl5a7-0" edge="1">
          <mxGeometry relative="1" as="geometry">
            <mxPoint x="230" y="80" as="targetPoint" />
          </mxGeometry>
        </mxCell>
        <mxCell id="WIyWlLk6GJQsqaUBKTNV-3" value="START" style="rounded=1;whiteSpace=wrap;html=1;fontSize=12;glass=0;strokeWidth=1;shadow=0;" parent="WIyWlLk6GJQsqaUBKTNV-1" vertex="1">
          <mxGeometry x="160" y="-80" width="120" height="40" as="geometry" />
        </mxCell>
        <mxCell id="N4FY37cbQbUWtQMGl5a7-11" value="" style="edgeStyle=orthogonalEdgeStyle;rounded=0;orthogonalLoop=1;jettySize=auto;html=1;" edge="1" parent="WIyWlLk6GJQsqaUBKTNV-1" source="WIyWlLk6GJQsqaUBKTNV-6" target="N4FY37cbQbUWtQMGl5a7-10">
          <mxGeometry relative="1" as="geometry" />
        </mxCell>
        <mxCell id="N4FY37cbQbUWtQMGl5a7-12" value="yes" style="edgeLabel;html=1;align=center;verticalAlign=middle;resizable=0;points=[];" vertex="1" connectable="0" parent="N4FY37cbQbUWtQMGl5a7-11">
          <mxGeometry x="-0.496" y="-2" relative="1" as="geometry">
            <mxPoint as="offset" />
          </mxGeometry>
        </mxCell>
        <mxCell id="N4FY37cbQbUWtQMGl5a7-47" value="no" style="edgeStyle=orthogonalEdgeStyle;rounded=0;orthogonalLoop=1;jettySize=auto;html=1;" edge="1" parent="WIyWlLk6GJQsqaUBKTNV-1" source="WIyWlLk6GJQsqaUBKTNV-6" target="N4FY37cbQbUWtQMGl5a7-3">
          <mxGeometry relative="1" as="geometry" />
        </mxCell>
        <mxCell id="WIyWlLk6GJQsqaUBKTNV-6" value="Is sock large size" style="rhombus;whiteSpace=wrap;html=1;shadow=0;fontFamily=Helvetica;fontSize=12;align=center;strokeWidth=1;spacing=6;spacingTop=-4;" parent="WIyWlLk6GJQsqaUBKTNV-1" vertex="1">
          <mxGeometry x="180" y="90" width="100" height="80" as="geometry" />
        </mxCell>
        <mxCell id="N4FY37cbQbUWtQMGl5a7-2" value="" style="edgeStyle=orthogonalEdgeStyle;rounded=0;orthogonalLoop=1;jettySize=auto;html=1;" edge="1" parent="WIyWlLk6GJQsqaUBKTNV-1" source="N4FY37cbQbUWtQMGl5a7-0" target="WIyWlLk6GJQsqaUBKTNV-6">
          <mxGeometry relative="1" as="geometry" />
        </mxCell>
        <mxCell id="N4FY37cbQbUWtQMGl5a7-0" value="Grab sock" style="rounded=1;whiteSpace=wrap;html=1;" vertex="1" parent="WIyWlLk6GJQsqaUBKTNV-1">
          <mxGeometry x="170" y="20" width="120" height="40" as="geometry" />
        </mxCell>
        <mxCell id="N4FY37cbQbUWtQMGl5a7-5" value="" style="edgeStyle=orthogonalEdgeStyle;rounded=0;orthogonalLoop=1;jettySize=auto;html=1;" edge="1" parent="WIyWlLk6GJQsqaUBKTNV-1" source="N4FY37cbQbUWtQMGl5a7-3" target="N4FY37cbQbUWtQMGl5a7-4">
          <mxGeometry relative="1" as="geometry" />
        </mxCell>
        <mxCell id="N4FY37cbQbUWtQMGl5a7-6" value="NO" style="edgeLabel;html=1;align=center;verticalAlign=middle;resizable=0;points=[];" vertex="1" connectable="0" parent="N4FY37cbQbUWtQMGl5a7-5">
          <mxGeometry x="-0.2067" y="-1" relative="1" as="geometry">
            <mxPoint as="offset" />
          </mxGeometry>
        </mxCell>
        <mxCell id="N4FY37cbQbUWtQMGl5a7-46" value="yes" style="edgeStyle=orthogonalEdgeStyle;rounded=0;orthogonalLoop=1;jettySize=auto;html=1;" edge="1" parent="WIyWlLk6GJQsqaUBKTNV-1" source="N4FY37cbQbUWtQMGl5a7-3" target="N4FY37cbQbUWtQMGl5a7-8">
          <mxGeometry relative="1" as="geometry" />
        </mxCell>
        <mxCell id="N4FY37cbQbUWtQMGl5a7-3" value="Is sock small" style="rhombus;whiteSpace=wrap;html=1;" vertex="1" parent="WIyWlLk6GJQsqaUBKTNV-1">
          <mxGeometry x="330" y="90" width="80" height="80" as="geometry" />
        </mxCell>
        <mxCell id="N4FY37cbQbUWtQMGl5a7-4" value="put in odd sock pile" style="whiteSpace=wrap;html=1;" vertex="1" parent="WIyWlLk6GJQsqaUBKTNV-1">
          <mxGeometry x="470" y="100" width="120" height="60" as="geometry" />
        </mxCell>
        <mxCell id="N4FY37cbQbUWtQMGl5a7-50" value="" style="edgeStyle=orthogonalEdgeStyle;rounded=0;orthogonalLoop=1;jettySize=auto;html=1;" edge="1" parent="WIyWlLk6GJQsqaUBKTNV-1" source="N4FY37cbQbUWtQMGl5a7-8" target="N4FY37cbQbUWtQMGl5a7-48">
          <mxGeometry relative="1" as="geometry" />
        </mxCell>
        <mxCell id="N4FY37cbQbUWtQMGl5a7-8" value="place in small sock pile" style="whiteSpace=wrap;html=1;" vertex="1" parent="WIyWlLk6GJQsqaUBKTNV-1">
          <mxGeometry x="315" y="220" width="110" height="40" as="geometry" />
        </mxCell>
        <mxCell id="N4FY37cbQbUWtQMGl5a7-49" value="" style="edgeStyle=orthogonalEdgeStyle;rounded=0;orthogonalLoop=1;jettySize=auto;html=1;" edge="1" parent="WIyWlLk6GJQsqaUBKTNV-1" source="N4FY37cbQbUWtQMGl5a7-10" target="N4FY37cbQbUWtQMGl5a7-48">
          <mxGeometry relative="1" as="geometry" />
        </mxCell>
        <mxCell id="N4FY37cbQbUWtQMGl5a7-10" value="place in large sock pile" style="whiteSpace=wrap;html=1;shadow=0;strokeWidth=1;spacing=6;spacingTop=-4;" vertex="1" parent="WIyWlLk6GJQsqaUBKTNV-1">
          <mxGeometry x="170" y="220" width="120" height="40" as="geometry" />
        </mxCell>
        <mxCell id="N4FY37cbQbUWtQMGl5a7-18" value="" style="edgeStyle=orthogonalEdgeStyle;rounded=0;orthogonalLoop=1;jettySize=auto;html=1;" edge="1" parent="WIyWlLk6GJQsqaUBKTNV-1" source="N4FY37cbQbUWtQMGl5a7-15" target="N4FY37cbQbUWtQMGl5a7-17">
          <mxGeometry relative="1" as="geometry" />
        </mxCell>
        <mxCell id="N4FY37cbQbUWtQMGl5a7-15" value="grab sock from large pile&amp;nbsp;" style="whiteSpace=wrap;html=1;shadow=0;strokeWidth=1;spacing=6;spacingTop=-4;" vertex="1" parent="WIyWlLk6GJQsqaUBKTNV-1">
          <mxGeometry x="170" y="410" width="120" height="40" as="geometry" />
        </mxCell>
        <mxCell id="N4FY37cbQbUWtQMGl5a7-20" value="" style="edgeStyle=orthogonalEdgeStyle;rounded=0;orthogonalLoop=1;jettySize=auto;html=1;" edge="1" parent="WIyWlLk6GJQsqaUBKTNV-1" source="N4FY37cbQbUWtQMGl5a7-17">
          <mxGeometry relative="1" as="geometry">
            <mxPoint x="390" y="560" as="targetPoint" />
          </mxGeometry>
        </mxCell>
        <mxCell id="N4FY37cbQbUWtQMGl5a7-21" value="no" style="edgeLabel;html=1;align=center;verticalAlign=middle;resizable=0;points=[];" vertex="1" connectable="0" parent="N4FY37cbQbUWtQMGl5a7-20">
          <mxGeometry x="-0.16" relative="1" as="geometry">
            <mxPoint as="offset" />
          </mxGeometry>
        </mxCell>
        <mxCell id="N4FY37cbQbUWtQMGl5a7-38" value="yes" style="edgeStyle=orthogonalEdgeStyle;rounded=0;orthogonalLoop=1;jettySize=auto;html=1;" edge="1" parent="WIyWlLk6GJQsqaUBKTNV-1" source="N4FY37cbQbUWtQMGl5a7-17" target="N4FY37cbQbUWtQMGl5a7-27">
          <mxGeometry relative="1" as="geometry" />
        </mxCell>
        <mxCell id="N4FY37cbQbUWtQMGl5a7-17" value="is sock black" style="rhombus;whiteSpace=wrap;html=1;shadow=0;strokeWidth=1;spacing=6;spacingTop=-4;" vertex="1" parent="WIyWlLk6GJQsqaUBKTNV-1">
          <mxGeometry x="250" y="520" width="80" height="80" as="geometry" />
        </mxCell>
        <mxCell id="N4FY37cbQbUWtQMGl5a7-26" value="no" style="edgeStyle=orthogonalEdgeStyle;rounded=0;orthogonalLoop=1;jettySize=auto;html=1;" edge="1" parent="WIyWlLk6GJQsqaUBKTNV-1" source="N4FY37cbQbUWtQMGl5a7-22" target="N4FY37cbQbUWtQMGl5a7-25">
          <mxGeometry relative="1" as="geometry" />
        </mxCell>
        <mxCell id="N4FY37cbQbUWtQMGl5a7-31" value="yes" style="edgeStyle=orthogonalEdgeStyle;rounded=0;orthogonalLoop=1;jettySize=auto;html=1;" edge="1" parent="WIyWlLk6GJQsqaUBKTNV-1" source="N4FY37cbQbUWtQMGl5a7-22" target="N4FY37cbQbUWtQMGl5a7-30">
          <mxGeometry relative="1" as="geometry" />
        </mxCell>
        <mxCell id="N4FY37cbQbUWtQMGl5a7-22" value="is sock white" style="rhombus;whiteSpace=wrap;html=1;" vertex="1" parent="WIyWlLk6GJQsqaUBKTNV-1">
          <mxGeometry x="390" y="520" width="80" height="80" as="geometry" />
        </mxCell>
        <mxCell id="N4FY37cbQbUWtQMGl5a7-69" value="" style="edgeStyle=orthogonalEdgeStyle;rounded=0;orthogonalLoop=1;jettySize=auto;html=1;" edge="1" parent="WIyWlLk6GJQsqaUBKTNV-1" source="N4FY37cbQbUWtQMGl5a7-25" target="N4FY37cbQbUWtQMGl5a7-68">
          <mxGeometry relative="1" as="geometry" />
        </mxCell>
        <mxCell id="N4FY37cbQbUWtQMGl5a7-25" value="place in large sock odd pile" style="whiteSpace=wrap;html=1;" vertex="1" parent="WIyWlLk6GJQsqaUBKTNV-1">
          <mxGeometry x="530" y="530" width="120" height="60" as="geometry" />
        </mxCell>
        <mxCell id="N4FY37cbQbUWtQMGl5a7-40" value="" style="edgeStyle=orthogonalEdgeStyle;rounded=0;orthogonalLoop=1;jettySize=auto;html=1;" edge="1" parent="WIyWlLk6GJQsqaUBKTNV-1" source="N4FY37cbQbUWtQMGl5a7-27" target="N4FY37cbQbUWtQMGl5a7-39">
          <mxGeometry relative="1" as="geometry" />
        </mxCell>
        <mxCell id="N4FY37cbQbUWtQMGl5a7-27" value="place in black pile" style="whiteSpace=wrap;html=1;shadow=0;strokeWidth=1;spacing=6;spacingTop=-4;" vertex="1" parent="WIyWlLk6GJQsqaUBKTNV-1">
          <mxGeometry x="230" y="635" width="120" height="60" as="geometry" />
        </mxCell>
        <mxCell id="N4FY37cbQbUWtQMGl5a7-44" value="" style="edgeStyle=orthogonalEdgeStyle;rounded=0;orthogonalLoop=1;jettySize=auto;html=1;" edge="1" parent="WIyWlLk6GJQsqaUBKTNV-1" source="N4FY37cbQbUWtQMGl5a7-30" target="N4FY37cbQbUWtQMGl5a7-43">
          <mxGeometry relative="1" as="geometry" />
        </mxCell>
        <mxCell id="N4FY37cbQbUWtQMGl5a7-30" value="place in white pile" style="whiteSpace=wrap;html=1;" vertex="1" parent="WIyWlLk6GJQsqaUBKTNV-1">
          <mxGeometry x="370" y="640" width="120" height="60" as="geometry" />
        </mxCell>
        <mxCell id="N4FY37cbQbUWtQMGl5a7-66" style="edgeStyle=orthogonalEdgeStyle;rounded=0;orthogonalLoop=1;jettySize=auto;html=1;" edge="1" parent="WIyWlLk6GJQsqaUBKTNV-1" source="N4FY37cbQbUWtQMGl5a7-39" target="N4FY37cbQbUWtQMGl5a7-41">
          <mxGeometry relative="1" as="geometry" />
        </mxCell>
        <mxCell id="N4FY37cbQbUWtQMGl5a7-39" value="take two black socks and fold together" style="whiteSpace=wrap;html=1;shadow=0;strokeWidth=1;spacing=6;spacingTop=-4;" vertex="1" parent="WIyWlLk6GJQsqaUBKTNV-1">
          <mxGeometry x="230" y="775" width="120" height="60" as="geometry" />
        </mxCell>
        <mxCell id="N4FY37cbQbUWtQMGl5a7-41" value="PLACE IN DRAW" style="whiteSpace=wrap;html=1;shadow=0;strokeWidth=1;spacing=6;spacingTop=-4;" vertex="1" parent="WIyWlLk6GJQsqaUBKTNV-1">
          <mxGeometry x="305" y="930" width="120" height="60" as="geometry" />
        </mxCell>
        <mxCell id="N4FY37cbQbUWtQMGl5a7-65" style="edgeStyle=orthogonalEdgeStyle;rounded=0;orthogonalLoop=1;jettySize=auto;html=1;entryX=0.5;entryY=0;entryDx=0;entryDy=0;" edge="1" parent="WIyWlLk6GJQsqaUBKTNV-1" source="N4FY37cbQbUWtQMGl5a7-43" target="N4FY37cbQbUWtQMGl5a7-41">
          <mxGeometry relative="1" as="geometry" />
        </mxCell>
        <mxCell id="N4FY37cbQbUWtQMGl5a7-43" value="take two white socks and fold together" style="whiteSpace=wrap;html=1;shadow=0;strokeWidth=1;spacing=6;spacingTop=-4;" vertex="1" parent="WIyWlLk6GJQsqaUBKTNV-1">
          <mxGeometry x="370" y="775" width="120" height="60" as="geometry" />
        </mxCell>
        <mxCell id="N4FY37cbQbUWtQMGl5a7-52" value="no" style="edgeStyle=orthogonalEdgeStyle;rounded=0;orthogonalLoop=1;jettySize=auto;html=1;" edge="1" parent="WIyWlLk6GJQsqaUBKTNV-1" source="N4FY37cbQbUWtQMGl5a7-48" target="N4FY37cbQbUWtQMGl5a7-51">
          <mxGeometry relative="1" as="geometry" />
        </mxCell>
        <mxCell id="N4FY37cbQbUWtQMGl5a7-63" style="edgeStyle=orthogonalEdgeStyle;rounded=0;orthogonalLoop=1;jettySize=auto;html=1;entryX=0.5;entryY=0;entryDx=0;entryDy=0;" edge="1" parent="WIyWlLk6GJQsqaUBKTNV-1" source="N4FY37cbQbUWtQMGl5a7-48" target="N4FY37cbQbUWtQMGl5a7-62">
          <mxGeometry relative="1" as="geometry" />
        </mxCell>
        <mxCell id="N4FY37cbQbUWtQMGl5a7-67" style="edgeStyle=orthogonalEdgeStyle;rounded=0;orthogonalLoop=1;jettySize=auto;html=1;entryX=0.5;entryY=0;entryDx=0;entryDy=0;" edge="1" parent="WIyWlLk6GJQsqaUBKTNV-1" source="N4FY37cbQbUWtQMGl5a7-48" target="N4FY37cbQbUWtQMGl5a7-15">
          <mxGeometry relative="1" as="geometry" />
        </mxCell>
        <mxCell id="N4FY37cbQbUWtQMGl5a7-48" value="is there any large socks left" style="rhombus;whiteSpace=wrap;html=1;shadow=0;strokeWidth=1;spacing=6;spacingTop=-4;" vertex="1" parent="WIyWlLk6GJQsqaUBKTNV-1">
          <mxGeometry x="250" y="290" width="80" height="80" as="geometry" />
        </mxCell>
        <mxCell id="N4FY37cbQbUWtQMGl5a7-51" value="grab small sock" style="whiteSpace=wrap;html=1;shadow=0;strokeWidth=1;spacing=6;spacingTop=-4;" vertex="1" parent="WIyWlLk6GJQsqaUBKTNV-1">
          <mxGeometry x="390" y="300" width="120" height="60" as="geometry" />
        </mxCell>
        <mxCell id="N4FY37cbQbUWtQMGl5a7-64" style="edgeStyle=orthogonalEdgeStyle;rounded=0;orthogonalLoop=1;jettySize=auto;html=1;entryX=0.5;entryY=0;entryDx=0;entryDy=0;" edge="1" parent="WIyWlLk6GJQsqaUBKTNV-1" source="N4FY37cbQbUWtQMGl5a7-62" target="N4FY37cbQbUWtQMGl5a7-17">
          <mxGeometry relative="1" as="geometry" />
        </mxCell>
        <mxCell id="N4FY37cbQbUWtQMGl5a7-62" value="grab sock from small sock pile" style="rounded=0;whiteSpace=wrap;html=1;" vertex="1" parent="WIyWlLk6GJQsqaUBKTNV-1">
          <mxGeometry x="315" y="410" width="115" height="50" as="geometry" />
        </mxCell>
        <mxCell id="N4FY37cbQbUWtQMGl5a7-73" value="" style="edgeStyle=orthogonalEdgeStyle;rounded=0;orthogonalLoop=1;jettySize=auto;html=1;" edge="1" parent="WIyWlLk6GJQsqaUBKTNV-1" source="N4FY37cbQbUWtQMGl5a7-68" target="N4FY37cbQbUWtQMGl5a7-72">
          <mxGeometry relative="1" as="geometry" />
        </mxCell>
        <mxCell id="N4FY37cbQbUWtQMGl5a7-68" value="grab sock from odd pile" style="whiteSpace=wrap;html=1;" vertex="1" parent="WIyWlLk6GJQsqaUBKTNV-1">
          <mxGeometry x="530" y="635" width="120" height="60" as="geometry" />
        </mxCell>
        <mxCell id="N4FY37cbQbUWtQMGl5a7-75" value="" style="edgeStyle=orthogonalEdgeStyle;rounded=0;orthogonalLoop=1;jettySize=auto;html=1;" edge="1" parent="WIyWlLk6GJQsqaUBKTNV-1" source="N4FY37cbQbUWtQMGl5a7-72" target="N4FY37cbQbUWtQMGl5a7-74">
          <mxGeometry relative="1" as="geometry" />
        </mxCell>
        <mxCell id="N4FY37cbQbUWtQMGl5a7-72" value="grab second sock" style="whiteSpace=wrap;html=1;" vertex="1" parent="WIyWlLk6GJQsqaUBKTNV-1">
          <mxGeometry x="530" y="730" width="120" height="60" as="geometry" />
        </mxCell>
        <mxCell id="N4FY37cbQbUWtQMGl5a7-77" value="" style="edgeStyle=orthogonalEdgeStyle;rounded=0;orthogonalLoop=1;jettySize=auto;html=1;" edge="1" parent="WIyWlLk6GJQsqaUBKTNV-1" source="N4FY37cbQbUWtQMGl5a7-74" target="N4FY37cbQbUWtQMGl5a7-76">
          <mxGeometry relative="1" as="geometry" />
        </mxCell>
        <mxCell id="N4FY37cbQbUWtQMGl5a7-79" value="" style="edgeStyle=orthogonalEdgeStyle;rounded=0;orthogonalLoop=1;jettySize=auto;html=1;" edge="1" parent="WIyWlLk6GJQsqaUBKTNV-1" source="N4FY37cbQbUWtQMGl5a7-74" target="N4FY37cbQbUWtQMGl5a7-78">
          <mxGeometry relative="1" as="geometry" />
        </mxCell>
        <mxCell id="N4FY37cbQbUWtQMGl5a7-74" value="is secon sock same as first sock" style="rhombus;whiteSpace=wrap;html=1;" vertex="1" parent="WIyWlLk6GJQsqaUBKTNV-1">
          <mxGeometry x="550" y="860" width="80" height="80" as="geometry" />
        </mxCell>
        <mxCell id="N4FY37cbQbUWtQMGl5a7-76" value="get another sock" style="whiteSpace=wrap;html=1;" vertex="1" parent="WIyWlLk6GJQsqaUBKTNV-1">
          <mxGeometry x="690" y="870" width="120" height="60" as="geometry" />
        </mxCell>
        <mxCell id="N4FY37cbQbUWtQMGl5a7-78" value="fold both socks together and place in draw" style="whiteSpace=wrap;html=1;" vertex="1" parent="WIyWlLk6GJQsqaUBKTNV-1">
          <mxGeometry x="530" y="1030" width="120" height="60" as="geometry" />
        </mxCell>
      </root>
    </mxGraphModel>
  </diagram>
</mxfile>
